<?xml version="1.0" standalone="no"?>
<!DOCTYPE svg PUBLIC "-//W3C//DTD SVG 20010904//EN"
 "http://www.w3.org/TR/2001/REC-SVG-20010904/DTD/svg10.dtd">
<svg version="1.0" xmlns="http://www.w3.org/2000/svg"
 width="93" height="40" viewBox="0 0 93 40" fill="none"
 preserveAspectRatio="xMidYMid meet">

<g transform="translate(0.000000,200.000000) scale(0.100000,-0.100000)"
fill="#000000" stroke="none">
<path d="M1570 1465 c19 -19 36 -35 39 -35 3 0 -10 16 -29 35 -19 19 -36 35
-39 35 -3 0 10 -16 29 -35z"/>
<path d="M780 1125 c0 -78 2 -85 20 -85 16 0 20 7 20 35 0 33 2 35 35 35 33 0
35 -2 35 -35 0 -24 5 -35 15 -35 12 0 15 16 15 85 0 69 -3 85 -15 85 -10 0
-15 -11 -15 -35 0 -33 -2 -35 -35 -35 -33 0 -35 2 -35 35 0 28 -4 35 -20 35
-18 0 -20 -7 -20 -85z"/>
<path d="M976 1189 c-22 -17 -26 -28 -26 -69 0 -41 4 -52 26 -69 37 -29 94
-26 94 5 0 10 -8 12 -29 8 -24 -5 -32 -1 -46 20 -33 49 2 108 54 91 23 -7 37
21 15 29 -30 11 -61 6 -88 -15z"/>
<path d="M1100 1125 c0 -69 3 -85 15 -85 12 0 15 16 15 85 0 69 -3 85 -15 85
-12 0 -15 -16 -15 -85z"/>
<path d="M1160 1180 c0 -16 5 -30 10 -30 6 0 10 3 10 8 0 4 3 17 6 30 5 16 2
22 -10 22 -11 0 -16 -9 -16 -30z"/>
<path d="M1218 1159 c-28 -16 -22 -47 12 -64 39 -20 39 -39 0 -33 -24 4 -30 1
-28 -11 4 -20 50 -26 78 -11 29 16 25 48 -10 68 -36 21 -38 32 -6 32 30 0 42
15 20 24 -22 9 -46 7 -66 -5z"/>
<path d="M450 895 c0 -78 2 -85 20 -85 16 0 20 7 20 30 0 17 4 30 9 30 5 0 19
-13 31 -30 12 -16 30 -30 41 -30 20 0 20 1 -2 31 -18 26 -20 35 -11 50 18 29
14 67 -7 79 -11 5 -38 10 -60 10 l-41 0 0 -85z m77 39 c3 -9 0 -20 -8 -25 -23
-14 -29 -11 -29 16 0 28 27 35 37 9z"/>
<path d="M837 950 c-4 -17 -11 -19 -55 -13 -45 5 -51 3 -62 -17 l-12 -22 -14
21 c-19 26 -65 28 -87 3 -20 -22 -22 -85 -4 -100 24 -21 97 -19 97 2 0 9 -10
13 -31 12 -18 0 -34 5 -36 12 -3 8 7 12 31 12 22 0 39 6 42 14 5 12 12 11 40
-6 39 -23 35 -42 -7 -33 -36 8 -39 -12 -4 -25 65 -25 106 43 45 75 -16 9 -30
18 -30 20 0 3 18 5 40 5 l40 0 0 -45 c0 -38 4 -47 23 -54 12 -5 29 -6 37 -2 8
4 43 6 78 5 l62 -2 0 42 c0 59 -23 88 -66 84 -44 -4 -49 -22 -6 -26 35 -4 45
-22 11 -22 -31 0 -59 -19 -59 -39 0 -14 -5 -18 -20 -14 -25 7 -30 73 -5 73 8
0 15 7 15 15 0 8 -6 15 -14 15 -8 0 -16 7 -20 15 -8 21 -23 19 -29 -5z m-167
-50 c0 -5 -9 -10 -20 -10 -11 0 -20 5 -20 10 0 6 9 10 20 10 11 0 20 -4 20
-10z m320 -44 c0 -14 -29 -31 -38 -22 -2 3 -2 12 1 21 8 19 37 20 37 1z"/>
<path d="M1564 946 c-10 -21 -5 -119 7 -130 5 -5 29 -9 52 -7 23 1 22 22 -3
28 -29 8 -28 68 1 76 23 6 17 27 -7 27 -8 0 -14 7 -14 15 0 23 -24 18 -36 -9z"/>
<path d="M1043 925 c-7 -21 3 -95 15 -107 5 -5 20 -9 33 -8 13 0 36 0 52 1 27
0 27 1 27 64 0 58 -2 65 -19 65 -17 0 -20 -8 -23 -47 -3 -40 -6 -48 -23 -48
-17 0 -20 8 -23 48 -2 33 -7 47 -18 47 -8 0 -17 -7 -21 -15z"/>
<path d="M1190 875 c0 -58 2 -65 20 -65 17 0 20 7 20 44 0 35 4 46 19 51 26 8
36 35 13 35 -10 0 -23 -5 -30 -12 -9 -9 -12 -9 -12 0 0 7 -7 12 -15 12 -12 0
-15 -14 -15 -65z"/>
<path d="M1297 933 c-15 -14 -6 -23 22 -23 17 0 33 -4 36 -10 3 -6 -4 -10 -17
-10 -36 0 -60 -22 -56 -51 3 -22 8 -24 56 -26 l52 -1 0 52 c0 28 -5 57 -12 64
-13 13 -70 17 -81 5z m63 -72 c0 -5 -7 -14 -15 -21 -12 -10 -19 -10 -28 -1 -9
9 -9 14 3 21 19 12 40 13 40 1z"/>
<path d="M1414 931 c-2 -2 -4 -31 -4 -63 0 -51 2 -58 19 -58 17 0 20 8 23 48
3 39 6 47 23 47 17 0 20 -8 23 -47 3 -40 6 -48 23 -48 16 0 19 7 19 39 0 22
-4 51 -10 65 -9 24 -14 26 -60 24 -28 -1 -53 -4 -56 -7z"/>
<path d="M1724 769 c-3 -6 -1 -16 5 -22 8 -8 11 -5 11 11 0 24 -5 28 -16 11z"/>
<path d="M1679 733 l-24 -28 28 24 c15 14 27 26 27 28 0 8 -8 1 -31 -24z"/>
<path d="M1530 693 c0 -21 3 -24 9 -14 5 8 7 20 4 28 -8 21 -13 15 -13 -14z"/>
<path d="M1458 630 c5 -35 8 -37 15 -10 3 10 -1 24 -7 29 -10 8 -11 3 -8 -19z"/>
<path d="M1493 614 c0 -7 4 -11 8 -8 4 2 10 -4 12 -13 3 -12 5 -9 6 8 1 15 -4
26 -12 26 -8 0 -14 -6 -14 -13z"/>
<path d="M1338 583 c6 -2 18 -2 25 0 6 3 1 5 -13 5 -14 0 -19 -2 -12 -5z"/>
<path d="M1583 577 c-3 -7 -3 -9 2 -5 4 4 14 3 21 -3 8 -7 14 -7 19 1 3 5 5
10 3 11 -27 6 -39 5 -45 -4z"/>
<path d="M1515 560 c-3 -5 -1 -10 4 -10 6 0 11 5 11 10 0 6 -2 10 -4 10 -3 0
-8 -4 -11 -10z"/>
<path d="M1440 552 c0 -6 -8 -13 -17 -15 -16 -4 -16 -5 -1 -6 18 -1 34 16 24
26 -3 4 -6 1 -6 -5z"/>
<path d="M1566 544 c-4 -9 -13 -14 -21 -10 -17 6 -18 2 -9 -32 6 -20 8 -21 23
-9 9 8 26 18 39 21 12 4 22 12 22 17 0 6 -7 6 -19 -1 -27 -14 -36 -13 -22 4 7
9 8 17 3 20 -6 3 -13 -1 -16 -10z m1 -30 c-3 -3 -12 -4 -19 -1 -8 3 -5 6 6 6
11 1 17 -2 13 -5z"/>
<path d="M1673 553 c9 -2 15 -9 12 -14 -10 -15 1 -10 15 6 11 13 8 15 -16 14
-17 -1 -22 -3 -11 -6z"/>
<path d="M1326 493 c-6 -14 -5 -15 5 -6 7 7 10 15 7 18 -3 3 -9 -2 -12 -12z"/>
<path d="M1380 488 c0 -4 6 -8 14 -8 8 0 17 4 20 8 2 4 -4 8 -15 8 -10 0 -19
-4 -19 -8z"/>
<path d="M1270 468 c0 -12 7 -18 23 -17 15 0 17 2 7 6 -8 3 -18 11 -22 17 -5
7 -8 4 -8 -6z"/>
<path d="M1375 441 c-3 -5 -1 -12 4 -15 5 -4 12 -2 16 4 4 6 11 7 17 4 7 -4 8
-2 4 4 -9 14 -33 16 -41 3z"/>
<path d="M1475 440 c-3 -5 -1 -10 4 -10 6 0 11 5 11 10 0 6 -2 10 -4 10 -3 0
-8 -4 -11 -10z"/>
<path d="M1394 413 c-31 -6 -59 -39 -42 -49 7 -4 10 -4 6 1 -11 11 18 35 46
37 13 1 22 6 20 10 -3 4 -6 7 -7 7 -1 -1 -12 -4 -23 -6z"/>
<path d="M1480 391 c0 -7 -7 -11 -15 -8 -8 4 -16 3 -19 -1 -3 -4 4 -8 14 -9
20 -2 36 14 26 24 -3 4 -6 1 -6 -6z"/>
<path d="M1215 373 c-29 -8 -86 -49 -78 -56 10 -10 25 -8 19 2 -8 12 38 41 64
41 11 0 20 5 20 10 0 6 -1 9 -2 9 -2 -1 -12 -4 -23 -6z"/>
<path d="M1302 372 c-9 -6 -7 -13 10 -27 13 -11 17 -13 11 -5 -16 18 -17 34
-1 24 7 -4 8 -3 4 4 -8 14 -8 14 -24 4z"/>
<path d="M1230 346 c0 -2 7 -7 16 -10 8 -3 12 -2 9 4 -6 10 -25 14 -25 6z"/>
<path d="M1535 340 c-3 -5 -2 -10 4 -10 5 0 13 5 16 10 3 6 2 10 -4 10 -5 0
-13 -4 -16 -10z"/>
<path d="M1418 333 c-10 -2 -18 -9 -18 -14 0 -6 5 -7 10 -4 6 3 10 -2 10 -11
0 -22 9 -13 15 15 2 11 3 20 2 20 -1 -1 -10 -3 -19 -6z"/>
<path d="M1560 315 c0 -9 6 -12 15 -9 8 4 15 7 15 9 0 2 -7 5 -15 9 -9 3 -15
0 -15 -9z"/>
<path d="M1190 309 c-14 -4 -23 -8 -20 -9 16 -6 51 -6 60 0 18 11 -11 18 -40
9z"/>
<path d="M1448 293 c7 -3 16 -2 19 1 4 3 -2 6 -13 5 -11 0 -14 -3 -6 -6z"/>
<path d="M1590 282 c6 -12 8 -28 4 -34 -4 -7 -3 -8 4 -4 16 10 15 18 -4 42
-14 18 -15 18 -4 -4z"/>
<path d="M1458 273 c7 -3 16 -2 19 1 4 3 -2 6 -13 5 -11 0 -14 -3 -6 -6z"/>
<path d="M1514 235 c23 -17 50 -20 41 -5 -4 6 -10 8 -15 5 -5 -3 -11 -1 -15 5
-3 5 -12 10 -18 10 -7 0 -3 -7 7 -15z"/>
<path d="M1597 215 c-4 -8 -2 -17 3 -20 6 -4 10 3 10 14 0 25 -6 27 -13 6z"/>
</g>
</svg>
